<svg width="32" height="32" fill="none" xmlns="http://www.w3.org/2000/svg"><circle cx="16" cy="16" r="16" fill="#111213"/><path d="M7.001 21v-9.568h1.04v4.329h1.677l2.626-4.329h1.092l-2.899 4.784L13.475 21H12.37l-2.652-4.303H8.041V21h-1.04Zm7.858 0v-6.942h.806l.221.767c.347-.243.732-.45 1.157-.624.433-.173.914-.26 1.443-.26.433 0 .802.1 1.105.299.312.19.546.433.702.728.217-.156.477-.312.78-.468.312-.156.641-.286.988-.39a3.392 3.392 0 0 1 1.027-.169c.503 0 .914.108 1.235.325.32.208.555.494.702.858.156.355.234.754.234 1.196V21h-1.027v-4.602c0-.295-.06-.555-.182-.78a1.258 1.258 0 0 0-.494-.546c-.217-.13-.48-.195-.793-.195-.39 0-.789.074-1.196.221a6.467 6.467 0 0 0-1.13.533c.042.13.073.26.09.39.026.121.04.251.04.39V21h-1.028v-4.602c0-.295-.06-.555-.182-.78a1.258 1.258 0 0 0-.494-.546c-.208-.13-.468-.195-.78-.195-.286 0-.555.03-.806.091-.243.052-.477.13-.702.234a7.41 7.41 0 0 0-.689.351V21H14.86Z" fill="#fff"/></svg>