<svg width="71.034" height="22" fill="none" xmlns="http://www.w3.org/2000/svg"><defs><clipPath id="a"><rect rx="-.5" width="19" height="19" transform="translate(.5 .5)" fill="#fff" fill-opacity="0"/></clipPath></defs><path d="M32.64 17h-7.37V5.36h7.3v1.51h-5.54v3.55h5.16v1.5h-5.16v3.56h5.61V17Zm2.14-11.64h1.7V17h-1.7V5.36ZM68.06 17h-1.7V8.27H68v1.39h.09c.32-.94 1.19-1.52 2.22-1.52.22 0 .55.02.72.04V9.8c-.14-.04-.54-.1-.89-.1-1.2 0-2.08.82-2.08 1.97V17Zm-21.9-2.19c-.38 1.42-1.73 2.36-3.63 2.36-2.58 0-4.15-1.77-4.15-4.48 0-2.68 1.6-4.53 4.03-4.53 1.98 0 3.86 1.23 3.86 4.38v.6h-6.2c.04 1.68 1.02 2.63 2.48 2.63.96 0 1.7-.42 2.01-1.25l1.6.29Zm9.27-.58c-.19 1.7-1.53 2.94-3.59 2.94-2.53 0-4.07-1.87-4.07-4.5 0-2.66 1.59-4.51 4.05-4.51 1.99 0 3.43 1.16 3.61 2.92h-1.66c-.18-.81-.84-1.5-1.92-1.5-1.42 0-2.36 1.18-2.36 3.05 0 1.9.92 3.1 2.36 3.1.97 0 1.71-.55 1.92-1.5h1.66Zm6.94 1.57c-.32.66-1.14 1.39-2.58 1.39-1.66 0-2.95-.94-2.95-2.66 0-1.98 1.69-2.41 3.35-2.61 1.57-.18 2.2-.17 2.2-.79v-.04c0-.99-.56-1.56-1.66-1.56-1.14 0-1.77.59-2.02 1.22l-1.6-.37c.57-1.59 2.02-2.22 3.6-2.22 1.39 0 3.39.5 3.39 3.04V17h-1.66v-1.2h-.07ZM42.42 9.56c-1.38 0-2.28 1.07-2.35 2.31h4.54c-.01-1.34-.87-2.31-2.19-2.31Zm16.09 4.99c0 .84.69 1.27 1.65 1.27 1.41 0 2.24-.94 2.24-1.97v-1.13c-.24.25-1.55.4-2.1.47-.99.13-1.79.45-1.79 1.36Z" fill="#FFF" fill-rule="evenodd"/><rect rx="-.5" width="19" height="19" transform="translate(.5 .5)" fill="none"/><g clip-path="url(#a)"><path d="M18.16 11.66a8.263 8.263 0 0 1-2.45 4.4 8.351 8.351 0 0 1-4.55 2.19v-1.69a6.672 6.672 0 0 0 5.29-4.9h1.71Zm-14.62 0c.32 1.23.97 2.33 1.89 3.2.93.86 2.07 1.45 3.31 1.68v1.7a8.434 8.434 0 0 1-4.49-2.2 8.406 8.406 0 0 1-2.42-4.38h1.71ZM15 9.16v1.67h-.84c-.85 0-1.68.33-2.3.92-.62.59-.98 1.39-1.03 2.25v1H9.16v-.84c0-.85-.33-1.68-.92-2.3-.59-.62-1.39-.98-2.24-1.03H5V9.16h10Zm-5-7.5c4.32 0 7.87 3.29 8.29 7.5h-1.68c-.2-1.61-.99-3.09-2.21-4.16A6.608 6.608 0 0 0 10 3.33c-1.63 0-3.2.59-4.41 1.67a6.625 6.625 0 0 0-2.21 4.16H1.7c.42-4.21 3.97-7.5 8.3-7.5Z" fill="#FFF"/></g></svg>