<svg width="17" height="16" fill="none" xmlns="http://www.w3.org/2000/svg"><path d="M8.5 1.333a6.666 6.666 0 1 1 0 13.333 6.666 6.666 0 0 1 0-13.333Zm0 1.334a5.333 5.333 0 1 0 0 10.666 5.333 5.333 0 0 0 0-10.666Zm2.555 2.224a.397.397 0 0 1 .623.29.393.393 0 0 1-.072.262c-1.453 2.03-2.253 3.118-2.399 3.264a1.001 1.001 0 0 1-1.414-1.414c.249-.249 1.336-1.05 3.262-2.402Zm1.112 2.442a.667.667 0 1 1 0 1.334.667.667 0 0 1 0-1.334Zm-7.334 0a.667.667 0 1 1 0 1.334.667.667 0 0 1 0-1.334ZM6.38 4.936a.667.667 0 1 1-.944.943.667.667 0 0 1 .944-.943ZM8.5 3.666A.667.667 0 1 1 8.5 5a.667.667 0 0 1 0-1.333Z" fill="#fff"/></svg>